<svg width="300" height="400" xmlns="http://www.w3.org/2000/svg">
 <defs>
  <style>.cls-1{fill:#dd9d5e;}.cls-2{fill:#791020;}.cls-3{fill:#ddac5f;}.cls-4{fill:#dd9d5b;}.cls-5{fill:none;stroke:#000;stroke-miterlimit:10;stroke-width:5px;}</style>
 </defs>
 <title>600X600 logo1</title>
 <g>
  <title>background</title>
  <rect fill="none" id="canvas_background" height="402" width="302" y="-1" x="-1"/>
 </g>
 <g>
  <title>Layer 1</title>
  <path id="svg_32" d="m233.22,34.439998" class="cls-5"/>
  <path id="svg_33" d="m231.52,36.879998" class="cls-5"/>
  <path id="svg_34" d="m229.78,46.159998l1.7,-10.69a11.59,11.59 0 0 1 0.33,-1.47l0.2,0.06l0.07,-0.2l2.7,1c-0.18,0.5 -0.37,1 -0.58,1.46l-4.42,9.84z"/>
  <path id="svg_35" d="m63.47,320.929998l-1.82,-0.48c5.13,-12.94 38.78,-34.37 40.21,-35.28l1.18,1.23c-0.35,0.22 -34.62,22.04 -39.57,34.53z"/>
  <polygon id="svg_36" points="123.3599853515625,109.33999633789062 122.29000854492188,123.7699966430664 123.73001098632812,130.95999145507812 128.05999755859375,139.61000061035156 129.82998657226562,142.49000549316406 133.6300048828125,133.88999938964844 140.30999755859375,128.60000610351562 149.67999267578125,127.02999877929688 160.32998657226562,128.75 169.32998657226562,131.27999877929688 178.6400146484375,132.1699981689453 190.27999877929688,130.95999145507812 197.3900146484375,129.1999969482422 205.20999145507812,124.76000213623047 209.16000366210938,119.19000244140625 211.45999145507812,112.80000305175781 204.73001098632812,115.83000183105469 198.27999877929688,117.9800033569336 191.989990234375,116.72000122070312 185.17999267578125,114.87999725341797 178.6099853515625,112.0999984741211 170.760009765625,108.5999984741211 162.29998779296875,106.94000244140625 166.8699951171875,102.22000122070312 174.14999389648438,97.54000091552734 178.8800048828125,96.45999908447266 164.6300048828125,96.66999816894531 155.83999633789062,98.87999725341797 145.239990234375,102.91999816894531 149.51998901367188,96.45999908447266 149.27999877929688,89.91000366210938 146.70999145507812,84.18000030517578 143.95001220703125,89.30999755859375 140.3699951171875,94.61000061035156 137.07000732421875,99.7699966430664 132.92001342773438,102.5 135.19000244140625,90.73999786376953 133.69000244140625,82.83000183105469 131.58999633789062,79.4800033569336 127.6099853515625,88.7300033569336 121.8699951171875,94.45999908447266 118.239990234375,97.73999786376953 123.3599853515625,109.33999633789062 "/>
  <polyline id="svg_37" points="98.5,113.8499984741211 94.92001342773438,119.41999816894531 95.79000854492188,119.94000244140625 88.41000366210938,126.24000549316406 80.69000244140625,133.1300048828125 74.45999145507812,134.62998962402344 82.04998779296875,137.91000366210938 94.260009765625,135.5800018310547 87.3800048828125,145.5800018310547 78,153.1699981689453 66.32000732421875,158.89999389648438 66.32000732421875,161.3300018310547 76.10000610351562,161.3300018310547 85.41000366210938,159.10000610351562 94.45001220703125,154.72000122070312 86.41998291015625,167.91000366210938 80.75,176.07000732421875 73.32000732421875,183.8800048828125 69.3800048828125,186.6199951171875 75.17001342773438,187.32000732421875 81.77999877929688,183.7100067138672 79.27999877929688,189.5800018310547 76.48001098632812,199.35000610351562 74.75997924804688,213.1300048828125 71.41000366210938,220.2100067138672 70.19000244140625,221.97000122070312 78.95001220703125,218.33999633789062 81.44998168945312,212.49000549316406 82.41000366210938,204.8000030517578 82.41000366210938,224.10000610351562 80.8800048828125,234.22999572753906 77.05999755859375,239.97000122070312 75.41000366210938,241.94000244140625 83.3699951171875,236.72000122070312 87.08999633789062,229.7899932861328 87.08999633789062,236.75999450683594 85.27999877929688,243.94000244140625 82.41000366210938,254.30001831054688 80.16000366210938,261.3699951171875 87.08999633789062,254.8699951171875 91.010009765625,253.25 93.57998657226562,265.6000061035156 98.92999267578125,276.6700134277344 102.1400146484375,283.5199890136719 111.79000854492188,280.70001220703125 106.20001220703125,251.2899932861328 103.42999267578125,236.75999450683594 102.760009765625,223.80999755859375 103.760009765625,220.2100067138672 99.989990234375,211.10000610351562 99.760009765625,198.60000610351562 101.92999267578125,190.52000427246094 107.64999389648438,179.25999450683594 112.60000610351562,165.41000366210938 114.89999389648438,148.41000366210938 113.1400146484375,132.41000366210938 108.04998779296875,123.23999786376953 100.07000732421875,112.68000030517578 "/>
  <polygon id="svg_38" points="183.42001342773438,187.52000427246094 190.5,183.47000122070312 196.42999267578125,183.47000122070312 201.51998901367188,186.60000610351562 203.22000122070312,191.94000244140625 203.22000122070312,196.52999877929688 200.72000122070312,199.35000610351562 196.54998779296875,201.9499969482422 179.45001220703125,214.58999633789062 175.29998779296875,219.41000366210938 167.51998901367188,223.3699951171875 159.20001220703125,225.52999877929688 150.73001098632812,225.3000030517578 144.79000854492188,222.66000366210938 139.92001342773438,217.77000427246094 136.8599853515625,211.41000366210938 143.51998901367188,217.10000610351562 149.79998779296875,219.41000366210938 159.20001220703125,219.64999389648438 164.60000610351562,217.32000732421875 171.32998657226562,212.49000549316406 177.35000610351562,199.35000610351562 180.8900146484375,191.94000244140625 183.42001342773438,187.52000427246094 "/>
  <polygon id="svg_39" points="227.98001098632812,168.42999267578125 223.91000366210938,173.67999267578125 225.95001220703125,179.25999450683594 227.98001098632812,183.47000122070312 234.25,185.49000549316406 241.72000122070312,185.49000549316406 245.260009765625,182.8800048828125 253.92999267578125,186.35000610351562 259.9800109863281,190.6199951171875 268.260009765625,196.55999755859375 275.54998779296875,197.83999633789062 280.8900146484375,196.47000122070312 285.32000732421875,193.75999450683594 288.739990234375,189.05999755859375 289.3500061035156,181.63999938964844 284.54998779296875,176.60000610351562 283.1400146484375,178.0399932861328 283.1499938964844,182.8800048828125 279.8500061035156,187.92999267578125 275.1199951171875,188.92999267578125 271.45001220703125,186.66000366210938 264.94000244140625,183.47000122070312 260.67999267578125,178.2899932861328 254.52999877929688,172.3300018310547 246.760009765625,167.25999450683594 237.70001220703125,166.1300048828125 232.10000610351562,166.5500030517578 227.98001098632812,168.42999267578125 "/>
  <polygon id="svg_40" points="114.95001220703125,140.51998901367188 131.6300048828125,143.17999267578125 157.70999145507812,141.6699981689453 172.32000732421875,140.77999877929688 205.30999755859375,133.30999755859375 207.60000610351562,141.33999633789062 201.54998779296875,143.75 204.1300048828125,152.2899932861328 203.22000122070312,160.58999633789062 199.76998901367188,166.1300048828125 192.82998657226562,162.6999969482422 189.010009765625,166.86000061035156 180.8900146484375,163.75999450683594 177.01998901367188,156.6999969482422 167.6099853515625,157.67999267578125 168.8900146484375,162.55999755859375 165.42999267578125,173.2100067138672 159.16000366210938,177.3300018310547 152.6199951171875,178.92999267578125 142.55999755859375,178.60000610351562 136.27999877929688,175.5500030517578 132.22000122070312,170.57000732421875 130.91000366210938,163.4199981689453 130.91000366210938,158.11000061035156 129.82998657226562,155.52999877929688 121.54000854492188,154.74000549316406 115.26998901367188,153.25999450683594 114.95001220703125,140.51998901367188 "/>
  <ellipse id="svg_41" transform="rotate(-49.34000015258789 -195.77999877929688,324.1499938964844) " ry="3.01" rx="2.16" cy="523.049994" cx="174.339999"/>
  <ellipse id="svg_42" transform="rotate(-71.55999755859375 -86.1200027465819,481.0199890136719) " ry="2.16" rx="3.01" cy="673.619989" cx="309.419997"/>
  <path id="svg_43" d="m189.85,207.649998l0,-2.87l2.61,0c8.6,0 17.5,-0.05 26,-1.69c6.12,-1.18 14.95,-3.41 20.93,-9.16c1.68,-1.62 5.48,-5.9 4.46,-10.74l2.8,-0.59c1.32,6.24 -3.25,11.45 -5.27,13.4c-6.53,6.28 -15.9,8.67 -22.38,9.91c-8.79,1.69 -17.82,1.72 -26.56,1.75l-2.59,-0.01z"/>
  <path stroke="null" style="vector-effect: non-scaling-stroke;" id="svg_44" d="m164.57,218.98a144,144 0 0 1 -16.24,-12c-0.72,-0.61 -1.43,-1.24 -2.15,-1.87c-3.24,-2.87 -6.59,-5.83 -10.67,-6.86a18.61,18.61 0 0 0 -10,0.58l-7.61,2.44l6.29,-4.93a3.76,3.76 0 0 1 1,-0.6c5.67,-3.17 12.46,-2.26 18.42,-1.13a85.7,85.7 0 0 1 21.23,6.49c0.76,0.36 1.44,0.72 2.11,1.08c2.27,1.2 4.06,2.15 6.7,1.93l0.24,2.86c-3.48,0.29 -5.81,-0.95 -8.28,-2.25c-0.64,-0.34 -1.3,-0.69 -2,-1a83,83 0 0 0 -20.57,-6.29c-1,-0.19 -2,-0.38 -3.1,-0.53a40.62,40.62 0 0 1 8.14,6.07c0.7,0.62 1.4,1.24 2.1,1.83a141.13,141.13 0 0 0 15.92,11.76l-1.53,2.42zm-38.62,-24.86a1.42,1.42 0 0 0 1,1.92l-1,-1.92z"/>
  <path id="svg_45" d="m215.46,282.529998c-13.76,0 -29.4,-7.46 -36.11,-22.49l2.62,-1.17c7.54,16.9 27.29,23.45 41.29,19.85c7.21,-2.42 12.17,-6.47 15.15,-12.4c1.86,-4.7 1.84,-9.85 -0.06,-16.2l0,-0.18c-0.77,-4.65 -0.36,-7.75 1.27,-9.46a4.87,4.87 0 0 1 4.24,-1.38a9.86,9.86 0 0 1 5,2c1.71,1.07 3.19,2 4.84,1.54c1,-0.34 1.36,-1.38 1.91,-3a3.11,3.11 0 0 0 -0.4,-2.55c-1.15,-1.75 -3.9,-2.76 -5.91,-3.09c-9.16,-1.36 -18.47,-1.59 -27.48,-1.81c-17.87,-0.44 -34.74,-0.85 -50.66,-9.4l1.36,-2.53c15.31,8.22 31.86,8.63 49.37,9.06c9.1,0.22 18.5,0.45 27.86,1.85c2.73,0.45 6.21,1.83 7.86,4.35a6,6 0 0 1 0.78,4.87l0,0.11c-0.61,1.84 -1.37,4.12 -3.77,4.92l-0.06,0c-2.88,0.82 -5.26,-0.66 -7.18,-1.85a7.66,7.66 0 0 0 -3.54,-1.53l-0.16,0c-1.31,-0.14 -1.77,0.33 -1.92,0.49c-0.53,0.56 -1.31,2.21 -0.54,6.93c2.08,7 2.06,12.73 -0.07,18.06l0,0.11c-3.34,6.68 -8.87,11.23 -16.88,13.91l-0.09,0a34.21,34.21 0 0 1 -8.72,0.99z"/>
  <path id="svg_46" d="m179.64,260.669998c-6.35,-11.55 -17.19,-19.4 -29,-21l-0.07,0c-4.6,-0.86 -11.64,-2.27 -17.86,-3.52c-5.14,-1 -10.44,-2.09 -11.19,-2.19l-0.14,0l-0.21,-0.06c-8.46,-2.6 -15.26,-7.72 -19.17,-14.41l0,-0.08c-0.31,-0.63 -0.62,-1.38 -0.91,-2.12s-0.55,-1.38 -0.81,-1.9l-0.08,-0.19c-3.15,-9.46 -2.72,-19 1.22,-26.9l0,-0.08c8.21,-14.15 16.55,-35.63 9.67,-57.75a163.54,163.54 0 0 0 -11.28,-15.77a164.36,164.36 0 0 1 -11.57,-16.2c-9.56,-15.94 -16,-30.26 -20.22,-45.07c-3.12,-11.87 -4.47,-22.3 -4.12,-31.88a3.71,3.71 0 0 1 0,-1.21l0,-0.18l0.29,-2.17l1.97,1.11c5.7,3.43 9.32,8.93 12.83,14.24l1.27,1.91q3.2,4.79 6.43,9.55c6.35,9.4 12.91,19.12 19,28.91c3.12,5 7.21,11.58 11.11,18.41c0.38,0.67 0.64,1.09 0.9,1.51s0.56,0.91 1,1.65c2.95,-1.87 10.1,-10.4 10.41,-17l0.15,-3.14l2.27,2.17c4.62,4.41 6.15,11.59 4.35,19.71a32.24,32.24 0 0 0 8.7,-14.38l0.82,-2.65l1.68,2.21c2.4,3.14 4.88,8.65 4,13.81a10.55,10.55 0 0 1 -1,3l3.07,-0.88c8.76,-2.54 17.82,-5.16 27.15,-3.21l0.46,0.1l6.78,1.52l-1,0.18l2.81,0.82l-8.85,0.31a5.61,5.61 0 0 1 -1,0.08c-2.59,0.34 -5,1.68 -7.43,3.09c-0.7,0.4 -1.39,0.79 -2.09,1.16l-1.23,0.63a14.09,14.09 0 0 0 -4.12,2.68a16.89,16.89 0 0 1 7.68,1.82l-1.39,2.51c-2.58,-1.43 -5.82,-1.51 -8.66,-1.48l-1.88,0l0.48,-1.82c0.9,-3.43 4.06,-5 6.6,-6.29l1.17,-0.6c0.67,-0.36 1.34,-0.74 2,-1.12c0.84,-0.48 1.68,-1 2.54,-1.41c-6.5,0.06 -13,1.94 -19.3,3.77c-2.55,0.74 -5.19,1.5 -7.78,2.13l-8.15,2l7,-4.58a7.08,7.08 0 0 0 3.2,-4.92a15.08,15.08 0 0 0 -1.92,-9.19c-2.08,5.35 -5.77,11.63 -12.25,15.64l-3.33,2.15l1.34,-3.83c1,-2.91 3.67,-12.08 -0.54,-18.62c-2.16,7.86 -10,16.5 -13.22,16.85l-1,0.1l-0.46,-0.85c-0.75,-1.39 -1.12,-2 -1.51,-2.61c-0.27,-0.44 -0.55,-0.89 -1,-1.6c-3.87,-6.78 -7.94,-13.34 -11,-18.3c-6.11,-9.75 -12.66,-19.45 -19,-28.83q-3.22,-4.78 -6.44,-9.56l-1.28,-1.93c-2.86,-4.33 -5.8,-8.8 -9.84,-11.93c-0.17,8.92 1.16,18.66 4.06,29.66c4.15,14.53 10.48,28.64 19.91,44.35a162.23,162.23 0 0 0 11.37,15.91a164.32,164.32 0 0 1 11.62,16.19l0.09,0.15l0.05,0.16c7.27,23.15 -1.34,45.49 -9.85,60.17c-3.57,7.17 -4,15.89 -1.08,24.58c0.3,0.61 0.58,1.32 0.86,2s0.54,1.34 0.79,1.86c3.53,6 9.7,10.64 17.39,13c0.71,0.1 2.9,0.53 11.37,2.22c6.2,1.24 13.22,2.64 17.8,3.5c12.69,1.74 24.3,10.14 31.08,22.46l-2.51,1.47z"/>
  <path id="svg_47" d="m173.75,108.399998l-2.85,-0.35c0.84,-6.76 2,-14 5.58,-21.21c1.76,-4.1 4,-7 7.08,-10.64c14.82,-17.2 32.22,-30.79 48.81,-42.92l1.69,2.31c-16.45,12 -33.7,25.49 -48.32,42.45c-2.87,3.44 -5,6.18 -6.65,9.95l0,0.08c-3.45,6.87 -4.53,13.81 -5.34,20.33z"/>
  <path id="svg_48" d="m182.27,113.839998l-1.68,-2.32c9.45,-6.84 16.55,-16.06 23.59,-25.71c6.17,-8.47 14,-19.77 20.11,-32.09a125.28,125.28 0 0 0 7.87,-20.08l2.75,0.81a128.18,128.18 0 0 1 -8.09,20.54c-6.17,12.52 -14.13,23.95 -20.37,32.51c-6.84,9.45 -14.39,19.26 -24.18,26.34z"/>
  <path id="svg_49" d="m181.45,112.799998" class="cls-5"/>
  <path id="svg_50" d="m221.86,218.099998l-0.57,-1a47.56,47.56 0 0 1 -2.63,-5.53a42.56,42.56 0 0 0 -2.21,-4.7l2.46,-1.47a44.16,44.16 0 0 1 2.39,5.05c0.62,1.47 1.27,3 1.92,4.23c0.93,-0.26 1.87,-0.49 2.78,-0.72c4.27,-1.07 8.31,-2.08 11.14,-5l0,-0.12c-1.71,-2.43 -3.41,-6.28 -3,-9.73l2.84,0.38c-0.35,2.61 1.1,5.91 2.69,8l0.29,0.38l0,2.23l-0.35,0.41c-3.43,3.92 -8.27,5.13 -13,6.31c-1.25,0.31 -2.54,0.64 -3.76,1l-0.99,0.28z"/>
  <path id="svg_51" d="m197.75,220.909998l0.82,-14.08l2.86,0.17l-0.64,10.91l10.4,-0.47c1.2,-0.1 2.93,-0.12 4.46,-0.12a48.13,48.13 0 0 0 0.58,-9.8c0,-0.69 0,-1.35 0,-2l2.87,0c0,0.6 0,1.25 0,1.92c0,3.6 0.08,8.09 -0.94,11.65l-0.3,1l-1.08,0c-1.67,0 -4,0 -5.4,0.12l-13.63,0.7z"/>
  <path id="svg_52" d="m189.06,220.399998a21.7,21.7 0 0 1 -10.28,-2.35l1.36,-2.52c5.61,3 12.63,1.88 15.38,1.26l-1.41,-9.27l2.83,-0.43l1.79,11.76l-1.18,0.37a31.19,31.19 0 0 1 -8.49,1.18z"/>
  <path id="svg_53" d="m167.7,214.549998c-4.61,0 -9.08,-3 -9.3,-3.12l-1.69,-1.14l1.65,-1.19c1.37,-1 2.77,-4.76 3.33,-6.88l2.77,0.73a24.89,24.89 0 0 1 -3,7c1.83,1 5.07,2.29 7.79,1.61l0.69,2.78a9.34,9.34 0 0 1 -2.24,0.21z"/>
  <path id="svg_54" d="m229.71,231.749998c-0.14,-0.63 -1.21,-5.3 -1.55,-8.23l-11.16,1a7.74,7.74 0 0 0 -1,5.32l-2.84,0.39a10.05,10.05 0 0 1 2,-8.06l0.37,-0.4l15.39,-1.39l0,1.6c0,1.67 1.13,7.15 1.58,9.12l-2.79,0.65z"/>
  <path id="svg_55" d="m211.91,229.889998l-2.86,-0.21l0.35,-4.83c-3.85,-0.72 -9,-1.41 -10.53,-1c-0.31,0.16 -2,1.23 -1.91,4.3l-2.86,0.12c-0.22,-5.38 3.55,-7 3.72,-7.09l0.12,0c2.87,-0.9 11.56,0.8 13.27,1.15l1.23,0.25l-0.53,7.31z"/>
  <path id="svg_56" d="m101.16,287.559998l-0.19,-2.34c-0.28,-3.49 -3.92,-9 -5.3,-10.76c-2.14,-2.95 -5.25,-14.06 -6.49,-18.72c-6.64,4.7 -6.43,10.88 -6.43,10.94l0.38,8.2l-3.14,-7.59a17.94,17.94 0 0 1 1.92,-16.88a51.38,51.38 0 0 0 2.79,-12.17c-4.13,4 -10.32,6.37 -10.68,6.5l-13.17,4.92l11.91,-7.48c6.43,-4 7.73,-16.3 7.91,-23.58c-4.12,4.46 -11.17,5.87 -11.56,5.95l-7,1.33l5.9,-3.94c3.89,-2.59 5.16,-12.77 5.32,-16.48c0.55,-6.6 3.07,-13.26 5.17,-17.83a22.39,22.39 0 0 1 -11.8,1.54l-5.07,-0.84l4.77,-1.91c10.37,-4.14 19.63,-20.24 23.45,-27.66c-16.79,7.73 -27.63,3 -28.12,2.79l-3.4,-1.54l3.55,-1.14c18.56,-5.93 26.31,-15.78 29.12,-20.59c-13,3.52 -17.58,-2.57 -17.78,-2.85l-1.07,-1.48l1.69,-0.69c18.38,-7.45 24,-21.57 24.06,-21.71l2.68,1c-0.23,0.6 -5.64,14.31 -23.52,22.42c2.21,1.33 7.09,2.82 16.2,-0.43l2.75,-1l-0.9,2.77c-0.21,0.64 -5.07,14.86 -27.78,23.63c4.94,0.67 13.76,0.46 25,-5.7l3.74,-2l-1.74,3.89c-0.44,1 -9.71,21.46 -22,30.2c3.06,-0.37 6.79,-1.53 9.26,-4.72l2.36,1.61c-0.07,0.12 -6.91,11.63 -7.81,22.41c0,1.12 -0.5,9.24 -3.31,14.7c3.17,-1.33 7,-3.73 7.71,-7.7l2,-11.7l0.81,11.85c0.06,0.82 1,16.33 -4.07,26c2.65,-1.74 5.17,-4 5.89,-6.45l3.43,-11.7l-0.44,12.18c0,0.48 -0.64,11.85 -3.61,18.88l-0.07,0.17l-0.11,0.15a15.58,15.58 0 0 0 -2.76,8.16a19.08,19.08 0 0 1 7.8,-7.93l1.64,-0.94l0.47,1.83c1.17,4.58 4.62,17 6.51,19.63c0.17,0.23 4.08,5.39 5.43,10l6.7,-4.16c-1.25,-5.55 -7.16,-33 -7.84,-58.36l2.87,-0.08c0.75,27.91 7.92,58.48 8,58.78l0.24,1l-12.27,7.62z"/>
  <path id="svg_57" d="m123.51,126.659998l-2.14,-1.79c-18.16,-15.19 -26.9,-35.19 -31,-49.3a111.2,111.2 0 0 1 -4.67,-27.28l-0.06,-5.08l34,53.95l5.18,11.94l-1.31,17.56zm-34.57,-72.78a119.84,119.84 0 0 0 4.18,21c3.86,13.13 11.82,31.52 28,46l0.83,-11.23l-4.93,-11.18l-28.08,-44.59z"/>
  <path id="svg_58" d="m274.53,199.309998a19.53,19.53 0 0 1 -13,-5.43c-9.56,-8.73 -15.45,-9.17 -16.54,-9.18c-14.59,6.55 -20.6,-3.2 -20.66,-3.3c-2.13,-3.54 -2.58,-6.78 -1.35,-9.61c2.18,-5 8.91,-6.74 10,-7c6.67,-2.69 16.56,2 17,2.23l0.09,0c4.63,2.65 12.89,11.51 13.24,11.89a27.16,27.16 0 0 0 11.85,7.63c2.94,-0.09 4.94,-0.93 6,-2.49c2,-3.13 -0.07,-8.36 -0.09,-8.41l-1.63,-4l3.69,2.18c9.79,5.79 7.58,13.86 7.21,15c-1.58,6.65 -10.29,9.56 -10.66,9.68a17.13,17.13 0 0 1 -5.15,0.81zm-29.52,-17.47c1.83,0 8.43,0.73 18.51,10l0.06,0.06c0.26,0.27 6.6,6.6 15.18,3.94c0.05,0 7.58,-2.54 8.75,-7.66l0.06,-0.2c0.08,-0.22 1.74,-4.87 -2.84,-9.29a10.26,10.26 0 0 1 -1.21,7c-1.6,2.44 -4.46,3.72 -8.51,3.8l-0.18,0l-0.18,0a29.43,29.43 0 0 1 -13.43,-8.45c-0.08,-0.09 -8.25,-8.86 -12.52,-11.32c-0.68,-0.32 -9.41,-4.31 -14.7,-2.09l-0.26,0.08c-0.11,0 -6.38,1.41 -8.1,5.37c-0.84,1.93 -0.44,4.28 1.18,7c0.19,0.32 4.9,7.71 17.26,2l0.2,-0.09l0.22,0a4.26,4.26 0 0 1 0.51,-0.15z"/>
  <path id="svg_59" d="m199.67,278.919998a42.7,42.7 0 0 1 -11.15,-34.21a50.49,50.49 0 0 1 4.76,-16.84l2.53,1.34l-1.27,-0.67l1.27,0.67a48.54,48.54 0 0 0 -4.45,15.89a39.3,39.3 0 0 0 10.42,31.87l-2.11,1.95z"/>
  <path id="svg_60" d="m178.39,111.929998l-2.74,-0.85c0.37,-1.19 9.5,-29.36 48,-54.43l1.61,2.45c-37.68,24.46 -46.78,52.55 -46.87,52.83z"/>
  <path id="svg_61" d="m200.8,167.099998l-2.05,-2c5.55,-5.69 4.77,-14.51 1.53,-20.72l-0.77,-1.49l1.57,-0.53l0.15,0c0.61,-0.2 1.21,-0.34 1.8,-0.47a9.09,9.09 0 0 0 2.88,-1a31.15,31.15 0 0 1 -0.81,-3.26a24,24 0 0 0 -0.66,-2.65c-10.33,2.18 -21,4.44 -31.45,7.19l-0.15,0l-0.16,0c-7.47,0.31 -14.92,0.8 -22.14,1.28c-6.11,0.4 -12.43,0.82 -18.85,1.13l-1.42,0.07l-0.08,-1.42c-0.14,-2.58 0,-7.34 2.32,-10.26c8.57,-11.43 24.84,-6.64 30.19,-5.07l0.09,0c9.62,3.55 19.73,3.71 31.82,0.53c4.27,-1.07 8.58,-2.64 11.27,-6.89l0.08,-0.11a21.78,21.78 0 0 0 3.67,-7.2a25,25 0 0 1 -9.49,3.91c-9.65,1.77 -20.07,-3.63 -28.44,-8l-0.7,-0.36l1.32,-2.55l0.7,0.36c8,4.14 17.91,9.29 26.6,7.69a22.57,22.57 0 0 0 11.13,-5.62l2.68,-2.45l-0.28,3.62a23.77,23.77 0 0 1 -4.88,12.26c-3.24,5.08 -8.36,6.93 -12.94,8.08c-12.48,3.28 -23.43,3.09 -33.48,-0.6c-13.43,-3.94 -22,-2.64 -27.07,4.09c-1.44,1.81 -1.74,4.86 -1.75,6.93c5.89,-0.3 11.7,-0.69 17.33,-1.06c7.18,-0.47 14.6,-1 22,-1.27c10.88,-2.86 21.92,-5.18 32.6,-7.43l1.08,-0.23l0.49,1a17.76,17.76 0 0 1 1.31,4.35a22.49,22.49 0 0 0 1,3.79l0.35,0.88l-0.67,0.67a9.06,9.06 0 0 1 -4.71,2.26c0.18,0.36 0.38,0.78 0.58,1.26a2,2 0 0 1 0.11,1.58c2.08,6.58 1.6,14.3 -3.7,19.71z"/>
  <path id="svg_62" d="m140.16,297.889998c-5.29,-0.33 -7.09,-22.65 -4.95,-61.22l2.86,0.16c-3,53.46 2.47,58.15 2.71,58.32a0.9,0.9 0 0 0 -0.44,-0.12l-0.18,2.86z"/>
  <path id="svg_63" d="m163.37,304.399998c-22.88,0 -51.37,-21.73 -52.74,-22.78l1.75,-2.27c0.37,0.29 37.32,28.47 59.42,20.89l0.11,0c0.69,-0.18 17,-4.55 22.06,-23.9l2.77,0.73c-5.4,20.64 -22.7,25.58 -24.07,25.94a28.8,28.8 0 0 1 -9.3,1.39z"/>
  <path id="svg_64" d="m155.11,226.969998a41.74,41.74 0 0 1 -4.53,-0.25l-0.07,0c-0.49,-0.08 -12.09,-2.07 -15.62,-17.08l-1.39,-5.91l3.89,4.66c0.1,0.12 10.38,12.31 19.14,10.25l0.28,0c0.41,0 10.28,-0.54 15.22,-12.52q0.16,-0.38 0.31,-0.78c4.63,-12.23 7.91,-16.13 8.86,-17.08c0.16,-0.27 0.41,-0.64 0.83,-1.22c0.52,-5.08 3.48,-10 4.94,-12.18a5.23,5.23 0 0 1 -1.09,-5l0.06,-0.19l5.8,-8.7l7.22,4c3.59,-2.88 13.47,-4.08 17.7,-4.48c1.51,-3.14 3,-4.83 4.56,-5.16a2.45,2.45 0 0 1 1.73,0.24l9.6,3.26l-1.57,1.63a7.81,7.81 0 0 0 -1.65,7.5l-2.71,0.94a11,11 0 0 1 1,-8.73l-5.88,-2c-0.31,0.17 -1.31,0.94 -2.79,4.25l-0.35,0.77l-0.84,0.07c-7.43,0.63 -16.15,2.43 -17.29,4.24l-0.72,1.15l-7.05,-3.92l-4.09,6.13a2.19,2.19 0 0 0 1.07,2.43l1.4,0.82l-1,1.29a31.77,31.77 0 0 0 -4.57,8.91c8.44,-6.08 16.28,0.12 16.37,0.2l0.19,0.15l0.13,0.21c2.52,4.1 3.36,7.82 2.51,11.07a9.14,9.14 0 0 1 -4,5.44l-0.1,0.05c-0.13,0.06 -13.19,6.11 -20.5,15.86l-0.11,0.13c-0.4,0.44 -9.25,9.55 -24.89,9.55zm-4.17,-3.09c16.4,1.77 26.15,-7.57 26.94,-8.36c7.56,-10 20.29,-16.09 21.47,-16.64a6.26,6.26 0 0 0 2.59,-3.7c0.61,-2.4 -0.09,-5.28 -2.06,-8.57c-1.27,-0.92 -8.69,-5.68 -16,3.23l-0.07,-0.06l-0.48,0.4s-3.31,3 -8.27,16.13q-0.17,0.44 -0.34,0.86c-5.4,13.07 -16.16,14.2 -17.63,14.29c-6.38,1.42 -13,-2.88 -17.21,-6.57c3.95,7.56 10.46,8.88 11.05,8.98l0.01,0.01z"/>
  <path id="svg_65" d="m148.23,180.649998c-5.75,0 -12.63,-1.68 -16.8,-8.54c-0.11,-0.17 -3,-4.73 -3,-14.28l-13.82,-3.27l0.66,-2.79l16,3.79l0,1.15c-0.15,9.38 2.58,13.83 2.6,13.88c6.95,11.44 23.25,5.85 23.42,5.79l0.13,0c12.74,-3.28 9.84,-17.15 9.74,-17.74l-0.32,-1.47l10.6,-1.79l0.33,1.27c2,7.51 11.47,9.57 11.57,9.59l-0.58,2.81c-0.44,-0.09 -10.33,-2.22 -13.36,-10.42l-5.21,0.88c0.47,4.26 0.66,16.38 -12,19.61a34.13,34.13 0 0 1 -9.96,1.53z"/>
  <path id="svg_66" d="m132.71,144.309998l-17.94,-2.37l0.39,-2.84l11.88,1.57c-7.26,-12.14 -6.26,-16.77 -6.11,-17.29l2.76,0.79l0,0s-0.84,4.69 7.38,17.55l1.64,2.59z"/>
  <rect id="svg_67" transform="rotate(-32.810001373291016 -201.4900054931641,198.50999450683597) " height="5.49" width="2.87" y="354.929995" x="164.389998"/>
 </g>
</svg>