<svg width="850" height="550" xmlns="http://www.w3.org/2000/svg">
 <defs>
  <style>.cls-1{fill:#dd9d5e;}.cls-2{fill:#791020;}.cls-3{fill:#ddac5f;}.cls-4{fill:#dd9d5b;}.cls-5{fill:none;stroke:#000;stroke-miterlimit:10;stroke-width:8px;}</style>
 </defs>
 <title>1200x1200 logo1</title>
 <g>
  <title>background</title>
  <rect fill="none" id="canvas_background" height="552" width="852" y="-1" x="-1"/>
 </g>
 <g>
  <title>Layer 1</title>
  <path id="svg_12" d="m295.61,242.660001c5.52,-1.86 11.25,-0.84 11.61,4.16a11.58,11.58 0 0 1 -0.19,2.24c-4.74,20.52 -20.1,38.26 -40.3,45.06a41.43,41.43 0 0 1 -11,2.3c-9.7,12.89 -23.41,21.53 -36.53,25.95c-13.64,4.59 -27.27,4.37 -33.85,-1.17a20.9,20.9 0 0 1 -13.65,17c-5.87,2 -11.48,0.14 -11.92,-6.07a16.21,16.21 0 0 1 0.82,-5.86l37.33,-127.48a22.12,22.12 0 0 1 14.13,-15.15c5.87,-2 11.26,-0.69 11.62,4.31a56.77,56.77 0 0 1 17.53,-9.47c2.42,-0.81 4.33,-1.3 5.89,-1.67c15.12,-3.69 29.07,1.08 30.16,16.54c0.83,11.67 -6.18,27.68 -17.26,38.39c7.73,4.38 11.25,11.73 11.82,19.76c0.54,7.73 -1.52,16 -4.91,23.07l0.17,-0.06c9.5,-3.2 16,-11.74 18.93,-22.35c1.1,-4.78 5.28,-8.05 9.6,-9.5zm-68,-17c5,-1.68 9.77,-1.74 11.59,-1.11c8.07,-5.82 10,-13.91 9.67,-18.3c-0.36,-5.15 -5.61,-6.8 -11.82,-4.71c-7.42,2.5 -16.84,9.39 -20.63,18.27l-17.17,57.29c4.2,-3.12 10.71,-6.09 16.23,-7.95c11.58,-3.74 21.18,-2.94 27.77,0.27a26.17,26.17 0 0 0 1.28,-9.43c-0.35,-5 -3,-7.52 -7.39,-7a27,27 0 0 1 -6.67,3.18c-6.56,2.21 -14.5,2.4 -18,-4.64a14.9,14.9 0 0 1 -0.81,-3.92c-0.49,-7 4.08,-14.87 9.46,-18.7a24.37,24.37 0 0 1 6.47,-3.23l0.02,-0.02zm6.84,64.26c-5,-2.52 -9.68,-4.35 -16.76,-2c-6.56,2.21 -10.86,6.45 -12,10.85a5.8,5.8 0 0 0 -0.18,2.39c0.25,3.48 4.05,4.84 10.44,2.69a39.42,39.42 0 0 0 18.48,-13.91l0.02,-0.02z"/>
  <path id="svg_13" d="m389.19,211.310001c5.35,-1.8 10.74,-0.67 11.08,4.18a8.63,8.63 0 0 1 -0.33,2.9c-10,35.65 -28.22,50.92 -44.62,56.44c-10.36,3.49 -20,2.69 -25.43,-2.14c-6,8.21 -13.42,15.22 -23.78,18.71c-14.51,4.88 -26.49,0.38 -27.36,-11.89a26,26 0 0 1 1,-8.56l16.55,-58.48a18.89,18.89 0 0 1 11.82,-12.82c6.39,-2.15 12.91,0 13.34,6.21a14,14 0 0 1 -0.7,5l-15.48,53.62a18.79,18.79 0 0 0 -0.53,5c0.16,2.28 1.65,3.33 4.24,2.45c6.91,-2.33 13.83,-11.95 18.08,-21.91l15.71,-52.92c2.14,-7.24 7.14,-11.55 12.15,-13.24c6.22,-2.09 12.55,0 13,6a11.09,11.09 0 0 1 -0.57,4.53l-17,57.53a6.93,6.93 0 0 0 -0.36,2.45c0.15,2.12 2.33,2.94 5.44,1.89c7.94,-2.67 16.89,-13.6 23.38,-34.4c1.37,-5.35 5.88,-9.07 10.37,-10.55z"/>
  <path id="svg_14" d="m470.38,184.600001c5.53,-1.86 11.44,-0.75 11.76,3.8a7.74,7.74 0 0 1 -0.34,2.6c-8.38,29 -24.44,49.5 -43.26,55.83c-14.34,4.82 -26.86,0.2 -27.79,-13a30.29,30.29 0 0 1 1.39,-10.4l6.29,-21a10.28,10.28 0 0 0 0.32,-2.9c-0.36,-5.15 -6.83,-4.07 -11.76,-3.8l-8.06,26a18.18,18.18 0 0 1 -11.43,11.24c-4.83,1.63 -9.5,0.56 -9.86,-4.44a14.42,14.42 0 0 1 0.28,-3.51l10.58,-34.1a12.35,12.35 0 0 1 -5.08,-9.31a22.15,22.15 0 0 1 15.06,-22c7.77,-2.62 15.27,0.91 15.76,7.88a11,11 0 0 1 -0.42,4c9.85,-0.68 31,-1.59 32,12.81a30.3,30.3 0 0 1 -1.14,8.92l-8.43,28.28a9.94,9.94 0 0 0 -0.45,3.57c0.15,2.12 1.5,3.69 3.91,2.87c7.25,-2.44 15.28,-16.47 20.79,-33.53c1.21,-5.03 5.4,-8.3 9.88,-9.81z"/>
  <path id="svg_15" d="m552.13,157.090001c5.53,-1.86 11.44,-0.75 11.75,3.8a7.75,7.75 0 0 1 -0.34,2.6c-8.39,29 -24.45,49.5 -43.27,55.83c-14.33,4.82 -26.85,0.2 -27.78,-13a30.22,30.22 0 0 1 1.39,-10.4l6.3,-21a10.29,10.29 0 0 0 0.33,-2.9c-0.36,-5.15 -6.82,-4.07 -11.75,-3.8l-8.07,26a18.18,18.18 0 0 1 -11.4,11.29c-4.83,1.63 -9.5,0.56 -9.85,-4.44a14.08,14.08 0 0 1 0.28,-3.51l10.51,-34.1a12.32,12.32 0 0 1 -5.08,-9.3a22.16,22.16 0 0 1 15.07,-22c7.77,-2.62 15.26,0.91 15.75,7.88a11.06,11.06 0 0 1 -0.43,4c9.85,-0.68 31,-1.59 32,12.81a30.08,30.08 0 0 1 -1.14,8.94l-8.44,28.28a10,10 0 0 0 -0.46,3.57c0.15,2.12 1.5,3.69 3.91,2.87c7.25,-2.44 15.28,-16.47 20.8,-33.53c1.29,-5.11 5.43,-8.38 9.92,-9.89z"/>
  <path id="svg_16" d="m560.64,181.990001c0.2,2.88 3,4.28 6.92,2.94c6.91,-2.32 15.62,-11.62 22.34,-34a17.12,17.12 0 0 1 10.91,-10.66c5.18,-1.75 10.56,-0.61 10.9,4.09a8.54,8.54 0 0 1 -0.33,2.9c-9.87,35.44 -27.87,50.81 -44.8,56.51c-15.88,5.35 -29.93,1.69 -30.94,-12.55c-0.18,-2.58 0.91,-7.13 1.73,-10.51c4.53,-16 10.51,-36.43 15,-52.53c2.26,-8.05 7.72,-13.3 13.08,-15.1c5.87,-2 11.82,-0.41 12.29,6.26c0.11,1.51 -0.61,3.92 -1.16,6.13l-15.63,54a7.69,7.69 0 0 0 -0.31,2.52zm3.15,-95.54c-0.48,-6.82 5.52,-14.43 13.29,-17s14.54,0.69 15,7.51c0.49,7 -5.5,14.73 -13.27,17.35s-14.53,-0.9 -15.02,-7.87l0,0.01z"/>
  <path id="svg_17" d="m656.63,122.530001c5.35,-1.8 10.56,-0.61 10.88,3.94a12.44,12.44 0 0 1 -0.48,3.26c-8.09,28.16 -25.54,48.78 -47.65,56.22c-17.78,6 -34.14,2.18 -35.23,-13.28a32.66,32.66 0 0 1 1.35,-10.88l0,0.15l11.92,-41.4l-5.7,1.92c-4.66,1.57 -7.85,-1.08 -8.15,-5.32c-0.34,-4.85 3.26,-11.34 12.59,-14.48l7.25,-2.44l11.45,-38.43a19.36,19.36 0 0 1 12,-13c7.59,-2.56 12.41,0.48 12.8,6.09a10.09,10.09 0 0 1 -0.32,3.05l-9.48,33.45l7.77,-2.61c6.56,-2.21 9.74,0.29 10,4.23c0.35,5 -3.92,12 -12.73,15l-11.22,3.78l-13.94,48a13.13,13.13 0 0 0 -0.45,3.57c0.29,4.09 4.32,6.15 10.54,4.06c10,-3.37 20.33,-15.07 26.05,-34.06a17.13,17.13 0 0 1 10.75,-10.82z"/>
  <path id="svg_18" d="m716.93,120.790001c10.18,-3.43 17.67,-12.62 20.81,-23.29a16.65,16.65 0 0 1 10.82,-11.87c5,-1.69 9.89,-0.07 10.29,5.54a17.91,17.91 0 0 1 -0.54,4.83c-4.75,17.89 -19.9,36 -40.28,42.88a47.15,47.15 0 0 1 -10.45,2.27c-6.48,13.35 -18.47,21.27 -31.94,25.8c-17.61,5.93 -33.83,1.61 -35,-14.3a33.26,33.26 0 0 1 1.47,-11.66l10.4,-35.46c4.58,-15.35 19.39,-28.4 35.62,-33.87c18.65,-6.27 33.88,-0.85 35,14.61c0.43,6.06 -3.82,21 -6.49,25.77a20.46,20.46 0 0 1 -3.22,4.5a22.71,22.71 0 0 1 1.05,4.92a14.07,14.07 0 0 0 2.46,-0.67zm-18.56,-27.42c-0.25,-3.49 -3.92,-5.51 -9.27,-3.7s-11.2,6.71 -12.92,12.41l-10.08,34.94a21.31,21.31 0 0 0 -1,7.65c0.25,3.64 2.24,6.69 9,4.43a18.83,18.83 0 0 0 12,-12.13c-3.46,-1.32 -6.58,-3.06 -7.12,-8.15c-0.64,-9.09 7.34,-18.76 16.9,-21a23.39,23.39 0 0 1 0.94,-4.2c0.96,-3.64 1.75,-7.47 1.56,-10.2l-0.01,-0.05z"/>
  <path id="svg_19" d="m150.02,395.870001c5.17,-1.78 10.21,-0.57 10.63,4.73a10.11,10.11 0 0 1 -0.42,3.72c-7.74,32.22 -37.82,59.25 -70,70.36c-31.52,10.87 -53.37,2.86 -55,-17.59c-1.25,-16.06 6.41,-40.16 31.74,-53.26c-4.66,-3.06 -7.51,-7.83 -8,-14.19c-1.63,-20.9 18.37,-45.53 43,-54c21.53,-7.43 38.82,-1.11 39,15.31c0,6.84 -5.56,12.5 -11.59,14.58s-11.12,0.26 -14.13,-6.48c-1.49,-3.22 -6.92,-4.77 -12.26,-2.93c-11.37,3.92 -17.16,13.54 -16.39,23.39c0.56,7.12 6.38,11.49 16.71,7.92c9.67,-3 14.45,1.55 14.94,7.76c0.56,7.12 -4.55,16.5 -14.88,20.07c-4.31,1.49 -9.41,1.85 -15.5,0.84c-16.88,5.82 -25.59,16.61 -24.53,30.08c0.8,10.3 10,14.75 25.84,9.28c20.67,-7.13 43.53,-24.66 49.88,-47.39a16.73,16.73 0 0 1 10.96,-12.2z"/>
  <path id="svg_20" d="m260.34,363.400001c5.17,-1.78 10.19,-0.87 10.54,3.67a10.15,10.15 0 0 1 -0.6,3.63c-9.8,30.76 -30.4,52.33 -50.89,59.4c-16.54,5.71 -29.51,0.38 -34.28,-13.06l-13,24.23a18,18 0 0 1 -9.94,8.56c-5.85,2 -11.65,0.29 -12.05,-4.86q-0.25,-3.18 2.57,-7.89l25.17,-44.47c-2.93,-8 -7.62,-11.52 -10.53,-12.54c-1.56,4.89 -6.57,22.33 -7.65,26.59a17.92,17.92 0 0 1 -11.18,12.29c-5.34,1.84 -10.4,0.48 -10.77,-4.22a8,8 0 0 1 0.45,-3.27c4.6,-15.89 5.92,-21.49 10,-34.57c3.1,-10.09 11.88,-17.64 20.67,-20.67c11.88,-4.1 19,0.61 26.09,12.46c6.23,-10.86 20.21,-24.24 31.75,-28.22c10,-3.45 17.13,-0.31 17.77,7.87c0.54,6.82 -6,13.89 -13,16.33c-4.65,1.6 -8.39,1.34 -11.37,-0.59c-4.73,5.06 -10.9,14.34 -17.55,26.59c4.22,20 7.87,23.73 18,20.22c10.33,-3.57 22.41,-16.45 28.77,-36.84c1.72,-5.25 6.38,-9.04 11.03,-10.64z"/>
  <path id="svg_21" d="m348.15,332.320001c5.17,-1.78 10.23,-0.42 10.62,4.58a12.55,12.55 0 0 1 -0.58,3.93c-9.12,32.55 -33.19,52.83 -66.6,64.36c-14.3,4.93 -24.79,6.53 -30.41,4.74l-11,40.65c-1.63,6.32 -7.12,10.7 -12.81,12.66c-6.2,2.14 -12.3,1 -12.79,-5.23a14.82,14.82 0 0 1 0.8,-5.56l34.54,-121.43a20.45,20.45 0 0 1 13.07,-13.84c6.2,-2.14 12.11,-1.22 12.05,2.53c3.57,-4 9,-6.69 13.67,-8.3c13.48,-4.62 25.79,1.84 26.79,14.1a23.68,23.68 0 0 1 -0.93,8.41c-3.91,13.33 -7.92,27.62 -11.84,40.8l-1.3,3.71a64.37,64.37 0 0 0 25.49,-33.64a17.93,17.93 0 0 1 11.23,-12.47zm-80,55.92c0.33,4.24 3.94,5.17 8.42,3.63a18.18,18.18 0 0 0 10.61,-11.29c3.73,-13.42 7.67,-26.29 11,-39.74a15,15 0 0 0 0.53,-4.54c-0.29,-3.79 -4.28,-5.05 -8.42,-3.63a17,17 0 0 0 -10.74,11.95l-11,39.9a10.05,10.05 0 0 0 -0.4,3.72z"/>
  <path id="svg_22" d="m428.39,306.340001c5.52,-1.9 11.44,-0.84 11.79,3.71a7.71,7.71 0 0 1 -0.33,2.6c-8.15,29.14 -24.05,49.68 -42.83,56.14c-14.29,4.93 -26.85,0.4 -27.88,-12.78a30.39,30.39 0 0 1 1.31,-10.41l6.13,-21.09a10.29,10.29 0 0 0 0.3,-2.9c-0.4,-5.15 -6.86,-4 -11.79,-3.71l-7.87,26a18.18,18.18 0 0 1 -11.31,11.37c-4.82,1.66 -9.5,0.63 -9.89,-4.37a14.27,14.27 0 0 1 0.25,-3.51l10.23,-34.1a12.34,12.34 0 0 1 -5.15,-9.27a22.15,22.15 0 0 1 14.89,-22.09c7.75,-2.67 15.28,0.8 15.82,7.76a11,11 0 0 1 -0.39,4c9.85,-0.75 31,-1.83 32.12,12.56a30.3,30.3 0 0 1 -1.07,8.92l-8.22,28.37a10,10 0 0 0 -0.43,3.57c0.17,2.12 1.52,3.68 3.93,2.84c7.24,-2.5 15.15,-16.58 20.54,-33.68c1.22,-5.08 5.38,-8.38 9.85,-9.93z"/>
  <path id="svg_23" d="m511.01,278.460001c5.16,-1.78 10.19,-0.87 10.55,3.82a9.21,9.21 0 0 1 -0.44,3.42c-9.1,32.85 -35.51,52.54 -59.45,60.8c-25.14,8.68 -45.31,4.13 -46.72,-13.9a35.13,35.13 0 0 1 1.4,-11.53l8.13,-29.4c4.84,-17.23 19.21,-30.27 34.54,-35.56c19.46,-6.71 33.25,-0.11 34.37,14.27a33.07,33.07 0 0 1 -0.73,8.8c-3.58,15.24 -16.68,28.63 -32.36,34a35.93,35.93 0 0 1 -18.44,1.7l-1.15,3.35a11.08,11.08 0 0 0 -0.53,4.54c0.54,7 8.88,9.54 21.45,5.2c14.64,-5 32.16,-18.41 38.36,-38.59c1.21,-5.2 6.19,-9.26 11.02,-10.92zm-60.68,6.63l-2.9,10.34a20.42,20.42 0 0 0 9.1,-1.27c5.17,-1.78 10.19,-5.38 11.53,-11a10.41,10.41 0 0 0 0.4,-3.87c-0.34,-4.39 -3.72,-6.8 -8.54,-5.14c-3.98,1.38 -8.07,5.59 -9.6,10.94l0.01,0z"/>
  <path id="svg_24" d="m607.25,255.670001c-8.84,31.67 -30.41,52.18 -66.58,64.66c-26,9 -47.13,8 -48.56,-10.31c-0.76,-9.69 5.7,-22 15.36,-29.72c6,-13.74 12.32,-27.89 18.14,-41.72a25.87,25.87 0 0 1 15.67,-14.43c8.61,-3 14.77,1.13 15.28,7.64c0.35,4.54 -3.06,10.7 -7.74,14.18c1.06,4.46 4.9,8.42 8.75,12.38c5.38,5.46 11.37,11.94 12.06,20.73a35.46,35.46 0 0 1 -0.24,6a59,59 0 0 0 16.58,-25.48a7.12,7.12 0 0 1 3.62,-3.43l13.91,-3.7c2.73,-0.8 4.44,0.78 3.75,3.2zm-76.39,50c9.62,-3.63 16.37,-12.34 15.8,-19.61c-0.5,-6.36 -9,-15.56 -11.92,-21.24c-0.88,2.33 -1.93,4.71 -3.11,7.76c5.22,1.16 8.35,4.9 8.72,9.75c0.58,7.42 -5.88,15.25 -13.46,17.87c-4,1.37 -7.68,1.25 -10.27,-0.19l0.06,0.76c0.28,5.81 6.94,7.4 14.18,4.9z"/>
  <path id="svg_25" d="m662.67,271.790001c2.3,-2.59 4.81,-5 7.11,-7.55a1.44,1.44 0 0 1 0.93,-0.47q3.88,-4.79 8,-9.41c-0.62,-3.66 -1.55,-7.27 -2.28,-10.92c-1.06,-0.64 -2.11,-1.33 -3.1,-1.9a10.89,10.89 0 0 0 -6.13,1.75l-4.36,4.36a1.74,1.74 0 0 1 -0.6,0.35a61.44,61.44 0 0 1 -6.87,7.39a35.53,35.53 0 0 0 0.24,-6c-0.69,-8.79 -6.68,-15.27 -12.05,-20.73c-3.84,-4 -7.69,-7.92 -8.74,-12.38c4.68,-3.48 8.09,-9.63 7.74,-14.18c-0.51,-6.51 -6.66,-10.61 -15.27,-7.64a25.9,25.9 0 0 0 -15.68,14.43c-5.82,13.83 -12.14,28 -18.14,41.72c-9.66,7.69 -16.13,20 -15.37,29.72c1.43,18.33 22.55,19.28 48.55,10.31c14.24,-4.91 26.16,-11.11 36,-18.72a1.45,1.45 0 0 1 0.02,-0.13zm-45.86,4.22c-7.23,2.5 -13.9,0.91 -14.18,-4.91l-0.06,-0.76c2.59,1.44 6.31,1.56 10.27,0.19c7.58,-2.62 14,-10.44 13.47,-17.87c-0.38,-4.85 -3.5,-8.59 -8.72,-9.75c1.18,-3 2.23,-5.43 3.11,-7.76c2.92,5.68 11.42,14.88 11.91,21.24c0.57,7.29 -6.18,16 -15.81,19.63l0.01,-0.01z"/>
  <path id="svg_26" d="m196.95,483.030001q102.83,-37.91 206.12,-74.54q103.76,-36.79 208,-72.28q58.41,-19.89 117,-39.37l-8.47,-3.45l2.18,-5.7l4,0l2,2.28c-2.71,-9.24 -17.19,-5.31 -14.46,4c1.92,6.53 9,10.59 15.47,7.22c5.57,-2.91 7,-10.24 3.82,-15.36c-1.66,-2.71 -5.3,-4.5 -8.47,-3.45q-104,34.6 -207.54,70.49q-104,36.05 -207.58,73.41q-58,20.94 -115.95,42.29c-9,3.31 -5.1,17.81 4,14.46l-0.12,0z"/>
  <path id="svg_27" d="m434.82,439.980001a887,887 0 0 1 135.68,-45.19c9.37,-2.31 5.4,-16.78 -4,-14.46a910.23,910.23 0 0 0 -139.26,46.72c-3.75,1.6 -4.51,7.06 -2.69,10.26c2.21,3.88 6.56,4.27 10.26,2.69l0.01,-0.02z"/>
  <path id="svg_28" d="m528.56,249.200001l-7.06,2.39l0.39,0.91l6.51,-2.81c0.59,-0.25 0.08,-1.12 -0.5,-0.86l-6.51,2.81c-0.52,0.22 -0.15,1.09 0.39,0.91l7.09,-2.39c0.61,-0.2 0.35,-1.17 -0.27,-1l-0.04,0.04z" class="cls-4"/>
 </g>
</svg>